<?xml version="1.0" encoding="UTF-8"?>
<!DOCTYPE svg PUBLIC "-//W3C//DTD SVG 1.1//EN" "http://www.w3.org/Graphics/SVG/1.1/DTD/svg11.dtd">
<!-- Creator: CorelDRAW 2017 -->
<svg xmlns="http://www.w3.org/2000/svg" xml:space="preserve" width="60mm" height="25mm" version="1.1" style="shape-rendering:geometricPrecision; text-rendering:geometricPrecision; image-rendering:optimizeQuality; fill-rule:evenodd; clip-rule:evenodd"
viewBox="0 0 6000 2500"
 xmlns:xlink="http://www.w3.org/1999/xlink">
 <defs>
  <style type="text/css">
   <![CDATA[
    .fil0 {fill:#253A84}
   ]]>
  </style>
 </defs>
 <g id="Capa_x0020_1">
  <metadata id="CorelCorpID_0Corel-Layer"/>
  <g id="_1911771283088">
   <path class="fil0" d="M339 1089l212 -113c-3,-2 -138,-51 -24,-178 42,-47 99,-93 187,-96 209,-6 172,222 81,313 -68,68 -203,210 -161,382 42,169 268,128 377,47l42 41c25,19 33,20 69,20 56,0 95,-21 137,-40l12 42 124 0c37,-50 55,-118 88,-174 22,-37 68,-79 110,-91 60,-16 35,-3 45,7 47,57 -88,105 -26,246 106,30 168,-25 246,-55 55,175 256,-26 288,-51 36,-28 52,-46 90,-75 -15,58 -52,107 -14,167 56,63 167,7 221,-30 86,-59 66,-106 197,-126 -44,338 368,143 488,6 41,-47 18,-47 92,-42 -25,55 -75,85 -65,166 116,119 237,-12 333,-29 53,29 58,82 148,82 61,0 130,-31 160,-65 174,80 130,127 398,-29 46,26 43,49 112,78 52,22 94,23 155,31 62,134 101,187 217,254 94,54 256,100 384,92 290,-18 512,-169 622,-326 -19,-19 -68,-68 -89,-83 -106,93 -212,289 -464,339 -246,49 -483,-104 -513,-293 188,-93 262,-33 560,-279 94,-78 347,-398 129,-537 -238,-152 -619,167 -761,425 -60,109 -75,201 -97,337 -98,-10 -122,-79 -113,-186l-145 2c-148,306 -313,79 -149,-13 97,-54 171,4 222,-35 -28,-77 -225,-101 -399,69 -51,50 -32,84 -93,109 -15,-27 -5,-33 -6,-77 0,-32 -8,-53 -13,-80 -19,-101 9,-102 37,-173 -131,10 -96,80 -212,184 -52,47 -133,159 -252,140 -25,-101 80,-107 103,-167 -47,-29 -203,76 -145,-55 19,-43 29,-31 5,-74 -42,-45 -104,19 -126,64 -50,102 -31,140 -214,233 -60,31 -135,56 -175,2 14,-26 8,-20 82,-36 33,-7 65,-17 92,-31 189,-93 73,-260 -149,-160 -101,45 -88,110 -205,113 5,-16 111,-139 -11,-122 -13,2 -36,16 -42,22 -56,51 -21,215 -169,200 9,-101 101,-167 61,-259 -60,-71 -258,156 -311,211 -35,37 -46,74 -110,72 -5,-61 63,-163 83,-225l-150 -2c-22,98 -90,223 -196,230 -6,-94 84,-149 18,-228 -45,-54 -156,-16 -200,29 -55,-27 31,-29 -169,-30 -14,52 -100,276 -211,233 -26,-83 174,-390 195,-508l-140 -1c-74,162 -167,428 -294,509 -128,80 -209,9 -155,-130 39,-100 111,-160 158,-251 198,-381 -281,-545 -570,-236 -86,92 -83,166 -47,296zm4263 346c166,-26 366,-138 461,-216 112,-91 299,-356 193,-441 -112,-89 -645,86 -654,656zm-1049 -67c82,30 88,-5 95,-89 -39,16 -75,55 -95,89zm-738 -68c77,-5 116,-14 126,-78 -64,-34 -107,17 -126,78z"/>
   <path class="fil0" d="M2021 959c-145,63 -32,190 90,148 121,-42 36,-203 -90,-148z"/>
  </g>
 </g>
</svg>
