<?xml version="1.0" encoding="UTF-8"?>
<!DOCTYPE svg PUBLIC "-//W3C//DTD SVG 1.1//EN" "http://www.w3.org/Graphics/SVG/1.1/DTD/svg11.dtd">
<!-- Creator: CorelDRAW 2017 -->
<svg xmlns="http://www.w3.org/2000/svg" xml:space="preserve" width="40mm" height="23mm" version="1.1" style="shape-rendering:geometricPrecision; text-rendering:geometricPrecision; image-rendering:optimizeQuality; fill-rule:evenodd; clip-rule:evenodd"
viewBox="0 0 4000 2300"
 xmlns:xlink="http://www.w3.org/1999/xlink">
 <defs>
  <style type="text/css">
   <![CDATA[
    .str1 {stroke:#2E2E2D;stroke-width:25}
    .str0 {stroke:#3A3582;stroke-width:107}
    .fil1 {fill:none}
    .fil6 {fill:#FEFEFE;fill-rule:nonzero}
    .fil5 {fill:#2E2E2D;fill-rule:nonzero}
    .fil4 {fill:#FFEC1B;fill-rule:nonzero}
    .fil3 {fill:#C5127C;fill-rule:nonzero}
    .fil2 {fill:#009EE0;fill-rule:nonzero}
    .fil0 {fill:#3A3582;fill-rule:nonzero}
   ]]>
  </style>
 </defs>
 <g id="Capa_x0020_1">
  <metadata id="CorelCorpID_0Corel-Layer"/>
  <g id="_2321936931904">
   <path class="fil0" d="M306 1005l-153 0 0 -862 153 0 0 862zm2853 0l-170 0 -28 -121 -169 0 -28 121 -49 0 197 -862 42 0 204 862zm-219 -209l-64 -273 -63 273 127 0zm-2570 -310l95 0 0 60c12,-26 23,-45 34,-55 11,-10 24,-16 39,-16 34,0 57,29 68,86 23,-57 51,-86 84,-86 34,0 58,23 70,70 3,13 6,27 7,42 1,15 2,40 2,77l0 342 -95 0 0 -345c0,-47 -1,-79 -4,-95 -3,-16 -8,-24 -17,-24 -7,0 -14,5 -20,14 -6,9 -10,22 -12,37 -2,16 -3,40 -3,70l0 342 -95 0 0 -345c0,-47 -1,-79 -4,-95 -3,-16 -8,-24 -17,-24 -8,0 -14,5 -20,14 -6,9 -10,22 -12,37 -2,17 -3,41 -3,73l0 340 -95 0 0 -519zm455 674l0 -674 95 0 0 34c14,-31 30,-46 49,-46 18,0 36,11 55,33 39,47 58,127 58,241 0,86 -12,154 -36,203 -21,44 -46,66 -75,66 -11,0 -20,-4 -27,-12 -7,-8 -15,-21 -23,-42l0 197 -95 0zm95 -554l0 245c0,66 8,99 24,99 5,0 10,-4 14,-12 5,-8 8,-19 11,-31 7,-36 10,-93 10,-171 0,-78 -3,-131 -8,-158 -6,-29 -13,-43 -23,-43 -8,0 -14,7 -20,21 -6,14 -8,31 -8,50zm299 399l-97 0 0 -519 97 0 0 125c19,-96 44,-144 76,-144 4,0 10,1 16,2 2,21 3,38 3,52 0,26 -3,57 -10,90 -10,-14 -19,-21 -27,-21 -16,0 -29,16 -41,48 -11,31 -17,72 -17,122l0 245zm206 -273c0,39 1,70 1,92 3,88 22,131 57,131 30,0 46,-26 46,-78 0,-1 0,-5 0,-10 13,2 24,9 32,21 8,12 12,29 14,50 -21,52 -58,78 -109,78 -42,0 -77,-23 -103,-69 -27,-47 -40,-110 -40,-189 0,-84 13,-153 40,-205 27,-53 59,-80 96,-80 27,0 52,14 76,42 25,30 42,77 51,141 2,17 5,42 7,75l-166 0zm64 -61c-2,-43 -4,-73 -7,-91 -6,-34 -14,-51 -25,-51 -10,0 -17,11 -22,33 -5,22 -8,59 -10,109l63 0zm323 -137c-7,21 -19,36 -35,45 -14,-35 -32,-52 -53,-52 -10,0 -17,5 -24,14 -6,9 -9,20 -9,34 0,14 2,23 7,30 5,6 15,14 31,23 20,11 36,22 48,32 12,10 21,21 27,33 20,36 30,83 30,141 0,57 -10,101 -30,132 -21,33 -49,50 -84,50 -34,0 -60,-14 -81,-43 -20,-28 -30,-63 -30,-104 0,-17 2,-34 5,-48 13,4 27,14 41,30 -3,10 -4,20 -4,30 0,23 6,41 18,56 12,14 27,22 46,22 18,0 32,-5 43,-15 10,-10 16,-25 16,-45 0,-19 -6,-35 -18,-46 -6,-6 -20,-15 -40,-26 -32,-18 -56,-41 -71,-71 -15,-30 -23,-69 -23,-115 0,-56 9,-98 28,-127 17,-26 41,-39 71,-39 20,0 39,5 55,16 16,11 28,26 36,45zm157 471l-97 0 0 -519 97 0 0 519zm-48 -733c15,0 28,9 39,27 11,18 16,40 16,65 0,26 -5,48 -16,65 -11,18 -24,27 -39,27 -15,0 -29,-9 -39,-27 -11,-18 -16,-40 -16,-65 0,-26 5,-48 16,-65 11,-18 24,-27 40,-27zm226 201c38,0 70,27 97,81 26,51 39,117 39,198 0,79 -15,145 -45,197 -26,45 -56,68 -91,68 -41,0 -75,-30 -102,-90 -24,-52 -35,-113 -35,-184 0,-78 15,-144 44,-197 26,-47 57,-70 94,-71zm-1 54c-11,0 -20,17 -25,52 -5,35 -8,89 -8,164 0,76 3,132 8,167 5,35 14,52 25,52 11,0 20,-17 25,-52 5,-35 8,-90 8,-166 0,-76 -3,-131 -8,-165 -5,-35 -14,-52 -25,-52zm-18 -75l0 -123 68 0 -29 123 -39 0zm290 553l-95 0 0 -519 95 0 0 60c12,-26 24,-45 35,-55 11,-10 25,-16 40,-16 18,0 34,7 47,21 18,20 29,52 32,96 1,13 1,37 1,71l0 342 -95 0 0 -345c0,-48 -2,-79 -5,-95 -3,-16 -9,-24 -18,-24 -8,0 -15,5 -21,14 -6,9 -10,22 -12,37 -2,17 -4,41 -4,73l0 340zm856 0l-97 0 0 -519 97 0 0 125c19,-96 44,-144 76,-144 4,0 10,1 16,2 2,21 3,38 3,52 0,26 -3,57 -10,90 -10,-14 -19,-21 -27,-21 -16,0 -29,16 -41,48 -11,31 -17,72 -17,122l0 245zm231 -451l0 324c0,30 1,48 2,54 3,15 9,22 17,22 12,0 23,-17 30,-50 11,15 20,41 27,78 -22,22 -48,33 -77,33 -39,0 -67,-16 -81,-48 -6,-13 -10,-26 -12,-38 -2,-12 -3,-31 -3,-57l0 -319 -27 0 0 -69 12 0c16,0 31,-14 45,-42 14,-28 25,-66 34,-114l32 0 0 156 56 0 0 69 -56 0zm180 177c0,39 1,70 1,92 3,88 22,131 57,131 30,0 46,-26 46,-78 0,-1 0,-5 0,-10 13,2 24,9 32,21 8,12 12,29 14,50 -21,52 -58,78 -109,78 -42,0 -77,-23 -103,-69 -27,-47 -40,-110 -40,-189 0,-84 13,-153 40,-205 27,-53 59,-80 96,-80 27,0 52,14 76,42 25,30 42,77 51,141 2,17 5,42 7,75l-166 0zm64 -61c-2,-43 -4,-73 -7,-91 -6,-34 -14,-51 -25,-51 -10,0 -17,11 -22,33 -5,22 -8,59 -10,109l63 0z"/>
   <line class="fil1 str0" x1="813" y1="1144" x2="3829" y2= "1144" />
   <g>
    <path class="fil2" d="M860 1522l0 -213 -47 0 0 -43 127 0 0 43 -47 0 0 213 -32 0zm76 -95c0,-16 2,-32 8,-47 5,-15 12,-27 21,-35 9,-8 19,-12 31,-12 17,0 32,9 43,27 11,18 17,41 17,69 0,28 -6,51 -17,70 -11,18 -25,28 -43,28 -11,0 -21,-4 -30,-12 -10,-8 -17,-19 -22,-34 -5,-15 -8,-33 -8,-54zm31 3c0,18 3,33 8,42 5,10 12,15 20,15 8,0 15,-5 20,-15 5,-10 8,-24 8,-43 0,-18 -3,-32 -8,-42 -5,-10 -12,-15 -20,-15 -8,0 -15,5 -20,15 -5,10 -8,24 -8,42zm218 92l-28 0 0 -27c-5,11 -10,19 -17,24 -6,5 -13,8 -19,8 -13,0 -25,-9 -34,-26 -9,-17 -14,-41 -14,-72 0,-31 5,-55 14,-72 9,-16 21,-25 35,-25 13,0 24,9 34,26l0 -92 31 0 0 256zm-82 -96c0,20 2,34 5,43 5,13 12,19 21,19 7,0 13,-5 18,-14 5,-10 7,-24 7,-43 0,-21 -2,-37 -7,-46 -5,-9 -11,-14 -18,-14 -7,0 -13,5 -18,14 -5,9 -7,23 -7,42zm104 1c0,-16 2,-32 8,-47 5,-15 12,-27 21,-35 9,-8 19,-12 31,-12 17,0 32,9 43,27 11,18 17,41 17,69 0,28 -6,51 -17,70 -11,18 -25,28 -43,28 -11,0 -21,-4 -30,-12 -10,-8 -17,-19 -22,-34 -5,-15 -8,-33 -8,-54zm31 3c0,18 3,33 8,42 5,10 12,15 20,15 8,0 15,-5 20,-15 5,-10 8,-24 8,-43 0,-18 -3,-32 -8,-42 -5,-10 -12,-15 -20,-15 -8,0 -15,5 -20,15 -5,10 -8,24 -8,42z"/>
    <path class="fil3" d="M1480 1464l31 8c-4,18 -10,32 -19,41 -8,9 -19,14 -32,14 -20,0 -35,-11 -45,-32 -8,-17 -11,-38 -11,-64 0,-31 5,-55 15,-72 10,-17 23,-26 38,-26 17,0 31,9 41,27 10,18 15,46 14,84l-76 0c0,15 3,26 7,34 5,8 11,12 18,12 5,0 9,-2 12,-6 3,-4 6,-11 7,-20zm2 -50c0,-14 -2,-25 -7,-32 -4,-7 -10,-11 -16,-11 -7,0 -12,4 -16,12 -4,8 -6,18 -6,32l46 0zm160 108l-31 0 0 -94c0,-20 -1,-33 -2,-39 -1,-6 -3,-10 -6,-14 -3,-3 -7,-5 -11,-5 -5,0 -10,2 -14,7 -4,5 -7,11 -9,18 -2,8 -2,22 -2,43l0 84 -31 0 0 -185 28 0 0 27c10,-21 23,-31 38,-31 7,0 13,2 19,6 6,4 10,9 13,15 3,6 5,13 6,21 1,8 2,19 2,33l0 115zm160 -59l31 8c-4,18 -10,32 -19,41 -8,9 -19,14 -32,14 -20,0 -35,-11 -45,-32 -8,-17 -11,-38 -11,-64 0,-31 5,-55 15,-72 10,-17 23,-26 38,-26 17,0 31,9 41,27 10,18 15,46 14,84l-76 0c0,15 3,26 7,34 5,8 11,12 18,12 5,0 9,-2 12,-6 3,-4 6,-11 7,-20zm2 -50c0,-14 -2,-25 -7,-32 -4,-7 -10,-11 -16,-11 -7,0 -12,4 -16,12 -4,8 -6,18 -6,32l46 0zm55 108l0 -256 31 0 0 256 -31 0zm146 -128l-28 -8c3,-18 9,-31 16,-40 8,-9 19,-13 34,-13 14,0 24,3 30,8 7,5 11,12 14,20 3,8 4,23 4,44l0 57c0,16 0,28 1,36 1,8 3,16 5,25l-30 0c-1,-3 -2,-8 -3,-14 0,-3 -1,-5 -1,-6 -5,8 -11,14 -17,18 -6,4 -12,6 -19,6 -12,0 -21,-5 -28,-16 -7,-10 -10,-23 -10,-39 0,-10 2,-20 5,-28 3,-8 7,-14 13,-19 6,-4 14,-8 24,-11 14,-4 24,-8 30,-12l0 -5c0,-10 -1,-16 -4,-20 -3,-4 -8,-6 -16,-6 -5,0 -10,2 -13,5 -3,3 -6,10 -7,18zm41 40c-4,2 -10,5 -19,8 -8,3 -14,6 -17,9 -4,5 -6,10 -6,17 0,7 2,13 5,18 3,5 7,7 12,7 6,0 11,-3 16,-9 4,-4 6,-10 7,-16 1,-4 1,-12 1,-24l0 -10zm89 89l-31 0 0 -185 28 0 0 26c5,-12 9,-21 13,-24 4,-4 8,-6 13,-6 7,0 14,3 20,9l-9 43c-5,-5 -10,-8 -14,-8 -4,0 -8,2 -11,6 -3,4 -5,11 -7,20 -2,10 -3,31 -3,62l0 57zm110 -185l0 39 -21 0 0 75c0,15 0,24 1,27 0,3 1,5 3,6 1,2 3,2 5,2 3,0 7,-2 12,-5l3 38c-7,5 -15,7 -24,7 -5,0 -10,-1 -15,-4 -4,-3 -8,-7 -10,-12 -2,-5 -3,-11 -4,-19 -1,-6 -1,-17 -1,-35l0 -81 -14 0 0 -39 14 0 0 -37 31 -29 0 66 21 0zm88 127l31 8c-4,18 -10,32 -19,41 -8,9 -19,14 -32,14 -20,0 -35,-11 -45,-32 -8,-17 -11,-38 -11,-64 0,-31 5,-55 15,-72 10,-17 23,-26 38,-26 17,0 31,9 41,27 10,18 15,46 14,84l-76 0c0,15 3,26 7,34 5,8 11,12 18,12 5,0 9,-2 12,-6 3,-4 6,-11 7,-20zm2 -50c0,-14 -2,-25 -7,-32 -4,-7 -10,-11 -16,-11 -7,0 -12,4 -16,12 -4,8 -6,18 -6,32l46 0z"/>
    <path class="fil4" d="M2560 1522l-28 0 0 -27c-5,11 -10,19 -17,24 -6,5 -13,8 -19,8 -13,0 -25,-9 -34,-26 -9,-17 -14,-41 -14,-72 0,-31 5,-55 14,-72 9,-16 21,-25 35,-25 13,0 24,9 34,26l0 -92 31 0 0 256zm-82 -96c0,20 2,34 5,43 5,13 12,19 21,19 7,0 13,-5 18,-14 5,-10 7,-24 7,-43 0,-21 -2,-37 -7,-46 -5,-9 -11,-14 -18,-14 -7,0 -13,5 -18,14 -5,9 -7,23 -7,42zm178 38l31 8c-4,18 -10,32 -19,41 -8,9 -19,14 -32,14 -20,0 -35,-11 -45,-32 -8,-17 -11,-38 -11,-64 0,-31 5,-55 15,-72 10,-17 23,-26 38,-26 17,0 31,9 41,27 10,18 15,46 14,84l-76 0c0,15 3,26 7,34 5,8 11,12 18,12 5,0 9,-2 12,-6 3,-4 6,-11 7,-20zm2 -50c0,-14 -2,-25 -7,-32 -4,-7 -10,-11 -16,-11 -7,0 -12,4 -16,12 -4,8 -6,18 -6,32l46 0z"/>
    <path class="fil5" d="M2774 1522l0 -256 32 0 0 256 -32 0zm61 -185l28 0 0 25c10,-19 22,-29 36,-29 7,0 14,2 19,7 5,5 10,12 13,22 5,-10 11,-17 16,-22 6,-5 12,-7 19,-7 8,0 16,3 22,8 6,6 10,14 13,24 2,8 3,21 3,38l0 118 -31 0 0 -106c0,-18 -1,-30 -3,-36 -3,-7 -7,-10 -13,-10 -4,0 -8,2 -12,6 -4,4 -7,10 -8,18 -2,8 -2,21 -2,38l0 89 -31 0 0 -101c0,-18 -1,-30 -2,-35 -1,-5 -3,-9 -5,-12 -2,-3 -5,-4 -9,-4 -5,0 -9,2 -13,6 -4,4 -6,10 -8,18 -2,8 -2,20 -2,38l0 90 -31 0 0 -185zm199 0l29 0 0 27c4,-9 9,-17 15,-23 6,-6 13,-9 21,-9 13,0 25,8 34,25 9,17 14,40 14,71 0,31 -5,55 -14,72 -9,17 -21,26 -34,26 -6,0 -12,-2 -17,-6 -5,-4 -11,-11 -16,-21l0 93 -31 0 0 -256zm30 90c0,21 3,36 8,46 5,10 11,15 19,15 7,0 13,-5 18,-14 5,-9 7,-24 7,-45 0,-20 -2,-34 -7,-43 -5,-9 -11,-14 -18,-14 -7,0 -14,5 -19,14 -5,9 -7,23 -7,41zm136 96l-31 0 0 -185 28 0 0 26c5,-12 9,-21 13,-24 4,-4 8,-6 13,-6 7,0 14,3 20,9l-9 43c-5,-5 -10,-8 -14,-8 -4,0 -8,2 -11,6 -3,4 -5,11 -7,20 -2,10 -3,31 -3,62l0 57zm124 -59l31 8c-4,18 -10,32 -19,41 -8,9 -19,14 -32,14 -20,0 -35,-11 -45,-32 -8,-17 -11,-38 -11,-64 0,-31 5,-55 15,-72 10,-17 23,-26 38,-26 17,0 31,9 41,27 10,18 15,46 14,84l-76 0c0,15 3,26 7,34 5,8 11,12 18,12 5,0 9,-2 12,-6 3,-4 6,-11 7,-20zm2 -50c0,-14 -2,-25 -7,-32 -4,-7 -10,-11 -16,-11 -7,0 -12,4 -16,12 -4,8 -6,18 -6,32l46 0zm44 56l31 -8c1,9 4,17 8,22 4,5 10,7 17,7 8,0 14,-2 18,-7 3,-3 4,-8 4,-13 0,-4 -1,-7 -2,-9 -2,-2 -5,-5 -10,-7 -25,-9 -40,-17 -47,-24 -9,-10 -14,-24 -14,-42 0,-16 4,-30 12,-41 8,-11 20,-16 37,-16 16,0 28,4 35,12 8,8 13,21 16,37l-29 9c-1,-7 -4,-13 -7,-17 -3,-4 -8,-6 -15,-6 -8,0 -14,2 -17,5 -2,3 -3,6 -3,10 0,4 1,6 3,9 3,3 12,8 29,14 16,6 28,13 34,22 6,9 10,21 10,36 0,17 -4,32 -13,44 -9,12 -22,18 -39,18 -16,0 -28,-5 -37,-15 -9,-10 -15,-24 -18,-41zm135 -158l0 -45 31 0 0 45 -31 0zm0 210l0 -185 31 0 0 185 -31 0zm55 -95c0,-16 2,-32 8,-47 5,-15 12,-27 21,-35 9,-8 19,-12 31,-12 17,0 32,9 43,27 11,18 17,41 17,69 0,28 -6,51 -17,70 -11,18 -25,28 -43,28 -11,0 -21,-4 -30,-12 -10,-8 -17,-19 -22,-34 -5,-15 -8,-33 -8,-54zm31 3c0,18 3,33 8,42 5,10 12,15 20,15 8,0 15,-5 20,-15 5,-10 8,-24 8,-43 0,-18 -3,-32 -8,-42 -5,-10 -12,-15 -20,-15 -8,0 -15,5 -20,15 -5,10 -8,24 -8,42zm14 -117l15 -52 34 0 -30 52 -19 0zm203 209l-31 0 0 -94c0,-20 -1,-33 -2,-39 -1,-6 -3,-10 -6,-14 -3,-3 -7,-5 -11,-5 -5,0 -10,2 -14,7 -4,5 -7,11 -9,18 -2,8 -2,22 -2,43l0 84 -31 0 0 -185 28 0 0 27c10,-21 23,-31 38,-31 7,0 13,2 19,6 6,4 10,9 13,15 3,6 5,13 6,21 1,8 2,19 2,33l0 115z"/>
   </g>
   <g>
    <path class="fil2 str1" d="M148 2057l0 -803 358 0 0 803 -358 0zm655 -356l0 45c30,-32 67,-48 110,-48 52,0 91,20 116,62 20,-21 41,-37 61,-47 21,-10 44,-15 69,-15 39,0 70,12 92,36 22,24 34,57 34,100l0 223 -174 0 0 -212c0,-13 -3,-22 -9,-29 -6,-7 -14,-10 -24,-10 -11,0 -23,4 -34,12l0 241 -174 0 0 -212c0,-13 -3,-22 -9,-29 -6,-7 -14,-11 -25,-11 -11,0 -22,4 -34,12l0 240 -184 0 0 -356 184 0z"/>
    <path class="fil3 str1" d="M1536 1702l0 27c28,-20 57,-30 88,-30 45,0 82,17 112,50 30,33 45,75 45,125 0,54 -16,99 -48,134 -32,35 -73,53 -123,53 -25,0 -50,-5 -74,-16l0 113 -184 0 0 -456 184 0zm0 157l0 64c11,6 21,9 32,9 11,0 20,-4 27,-12 7,-8 10,-19 10,-32 0,-13 -3,-24 -10,-33 -7,-8 -16,-13 -27,-13 -12,0 -23,6 -32,17zm487 -79c23,-54 57,-81 102,-81 25,0 45,8 61,24 16,16 24,37 24,61 0,26 -8,47 -24,63 -16,16 -36,24 -62,24 -29,0 -54,-11 -74,-32 -18,15 -27,44 -27,86l0 133 -184 0 0 -356 184 0 0 78z"/>
    <path class="fil4 str1" d="M2596 1922l0 62c-40,52 -98,79 -174,79 -62,0 -112,-17 -150,-52 -38,-34 -57,-80 -57,-136 0,-53 17,-97 52,-131 35,-34 80,-51 135,-51 28,0 55,5 79,14 24,9 45,23 63,42 18,18 31,40 39,64 8,24 12,54 12,89l-188 0c7,18 18,32 34,43 16,10 34,15 54,15 41,0 74,-13 99,-39zm-199 -82l87 0c-1,-18 -5,-32 -13,-42 -8,-10 -18,-15 -31,-15 -11,0 -21,5 -29,14 -8,10 -12,24 -12,42zm439 -139l0 45c31,-32 68,-48 111,-48 42,0 74,12 96,35 22,23 34,57 34,103l0 221 -174 0 0 -207c0,-30 -11,-44 -34,-44 -11,0 -22,4 -33,11l0 240 -184 0 0 -356 184 0z"/>
    <path class="fil6 str1" d="M3430 1702l0 100 -77 0 0 76c0,26 12,39 35,39 17,0 32,-8 44,-25l0 141c-29,19 -64,28 -106,28 -44,0 -81,-13 -112,-39 -30,-26 -45,-62 -45,-108l0 -111 -75 0 259 -202 0 102 77 0zm59 146l0 -107c52,-28 111,-42 177,-42 63,0 109,13 139,40 30,27 45,67 45,122l0 197 -184 0 0 -27c-27,20 -57,30 -89,30 -27,0 -50,-9 -68,-26 -18,-18 -27,-40 -27,-67 0,-30 11,-55 34,-75 23,-19 52,-29 89,-29 21,0 42,3 63,8 0,-17 -6,-29 -19,-39 -13,-9 -31,-14 -53,-14 -34,0 -68,9 -104,28zm176 131l0 -50c-11,-4 -21,-6 -30,-6 -11,0 -20,3 -27,9 -7,6 -10,13 -10,22 0,10 4,18 11,24 7,6 16,10 28,10 11,0 21,-3 29,-10z"/>
   </g>
  </g>
 </g>
</svg>
